<svg width="51" height="50" viewBox="0 0 51 50" fill="none" xmlns="http://www.w3.org/2000/svg">
<path fill-rule="evenodd" clip-rule="evenodd" d="M25.4125 0C18.6229 0 17.7729 0.0291667 15.1062 0.15C6.02706 0.566667 0.981226 5.60417 0.564559 14.6917C0.441642 17.3604 0.412476 18.2104 0.412476 25C0.412476 31.7896 0.441642 32.6417 0.562476 35.3083C0.979142 44.3875 6.01664 49.4333 15.1041 49.85C17.7729 49.9708 18.6229 50 25.4125 50C32.2021 50 33.0541 49.9708 35.7208 49.85C44.7916 49.4333 49.85 44.3958 50.2604 35.3083C50.3833 32.6417 50.4125 31.7896 50.4125 25C50.4125 18.2104 50.3833 17.3604 50.2625 14.6938C49.8541 5.62292 44.8104 0.56875 35.7229 0.152083C33.0541 0.0291667 32.2021 0 25.4125 0ZM25.4125 4.50617C32.0875 4.50617 32.8792 4.53117 35.5167 4.65201C42.2917 4.96034 45.4562 8.17492 45.7646 14.8999C45.8854 17.5353 45.9083 18.327 45.9083 25.002C45.9083 31.6791 45.8833 32.4687 45.7646 35.1041C45.4542 41.8228 42.2979 45.0437 35.5167 45.352C32.8792 45.4728 32.0917 45.4978 25.4125 45.4978C18.7375 45.4978 17.9458 45.4728 15.3104 45.352C8.51874 45.0416 5.37082 41.8124 5.06249 35.102C4.94166 32.4666 4.91666 31.677 4.91666 24.9999C4.91666 18.3249 4.94374 17.5353 5.06249 14.8978C5.37291 8.17492 8.52916 4.95826 15.3104 4.64992C17.9479 4.53117 18.7375 4.50617 25.4125 4.50617ZM12.575 25C12.575 17.9104 18.323 12.1625 25.4125 12.1625C32.5021 12.1625 38.25 17.9104 38.25 25C38.25 32.0917 32.5021 37.8396 25.4125 37.8396C18.323 37.8396 12.575 32.0896 12.575 25ZM25.4125 33.3336C20.8104 33.3336 17.0792 29.6044 17.0792 25.0003C17.0792 20.3982 20.8104 16.6669 25.4125 16.6669C30.0146 16.6669 33.7458 20.3982 33.7458 25.0003C33.7458 29.6044 30.0146 33.3336 25.4125 33.3336ZM35.7563 11.6561C35.7563 9.99981 37.1 8.65606 38.7583 8.65606C40.4146 8.65606 41.7563 9.99981 41.7563 11.6561C41.7563 13.3123 40.4146 14.6561 38.7583 14.6561C37.1 14.6561 35.7563 13.3123 35.7563 11.6561Z" fill="white"/>
</svg>
